<svg width="400" height="400" viewBox="0 0 400 400" fill="none" xmlns="http://www.w3.org/2000/svg">
<g clip-path="url(#clip0_306_312)">
<path d="M200 0L373.205 100V300L200 400L26.7949 300V100L200 0Z" fill="#8DDA93"/>
<path d="M91.1854 226C90.6308 226 90.177 225.824 89.824 225.471C89.471 225.118 89.2945 224.664 89.2945 224.109V174.946C89.2945 174.391 89.471 173.937 89.824 173.584C90.177 173.231 90.6308 173.055 91.1854 173.055H112.364C116.549 173.055 120.179 173.71 123.255 175.021C126.381 176.282 128.802 178.198 130.516 180.77C132.281 183.341 133.164 186.594 133.164 190.527C133.164 194.409 132.281 197.611 130.516 200.132C128.802 202.654 126.381 204.519 123.255 205.729C120.179 206.94 116.549 207.545 112.364 207.545H103.363V224.109C103.363 224.664 103.161 225.118 102.758 225.471C102.405 225.824 101.951 226 101.396 226H91.1854ZM103.136 197.107H111.985C114.154 197.107 115.868 196.552 117.129 195.443C118.44 194.334 119.095 192.644 119.095 190.375C119.095 188.459 118.541 186.846 117.431 185.535C116.322 184.224 114.507 183.568 111.985 183.568H103.136V197.107ZM142.206 226C141.651 226 141.197 225.824 140.844 225.471C140.491 225.118 140.315 224.664 140.315 224.109V188.56C140.315 188.005 140.491 187.552 140.844 187.199C141.197 186.846 141.651 186.669 142.206 186.669H151.131C151.635 186.669 152.064 186.846 152.417 187.199C152.82 187.552 153.022 188.005 153.022 188.56V224.109C153.022 224.664 152.82 225.118 152.417 225.471C152.064 225.824 151.635 226 151.131 226H142.206ZM142.13 180.996C141.575 180.996 141.122 180.82 140.769 180.467C140.416 180.114 140.239 179.66 140.239 179.106V172.374C140.239 171.819 140.416 171.365 140.769 171.012C141.122 170.609 141.575 170.407 142.13 170.407H151.131C151.685 170.407 152.139 170.609 152.492 171.012C152.896 171.365 153.097 171.819 153.097 172.374V179.106C153.097 179.66 152.896 180.114 152.492 180.467C152.139 180.82 151.685 180.996 151.131 180.996H142.13ZM166.137 226C165.583 226 165.129 225.824 164.776 225.471C164.423 225.118 164.246 224.664 164.246 224.109V188.56C164.246 188.005 164.423 187.552 164.776 187.199C165.129 186.846 165.583 186.669 166.137 186.669H174.836C175.39 186.669 175.844 186.846 176.197 187.199C176.55 187.552 176.726 188.005 176.726 188.56V191.434C178.037 189.871 179.752 188.56 181.87 187.501C183.988 186.442 186.484 185.913 189.358 185.913C192.282 185.913 194.854 186.568 197.073 187.879C199.342 189.19 201.107 191.132 202.367 193.703C203.678 196.225 204.334 199.326 204.334 203.007V224.109C204.334 224.664 204.132 225.118 203.729 225.471C203.376 225.824 202.947 226 202.443 226H192.913C192.408 226 191.955 225.824 191.551 225.471C191.198 225.118 191.022 224.664 191.022 224.109V203.46C191.022 201.09 190.442 199.275 189.282 198.015C188.173 196.704 186.509 196.048 184.29 196.048C182.223 196.048 180.559 196.704 179.298 198.015C178.088 199.275 177.483 201.09 177.483 203.46V224.109C177.483 224.664 177.281 225.118 176.878 225.471C176.525 225.824 176.096 226 175.592 226H166.137ZM228.961 226.756C225.683 226.756 222.885 226.403 220.565 225.697C218.296 224.941 216.431 224.033 214.968 222.975C213.556 221.916 212.497 220.832 211.792 219.722C211.086 218.562 210.707 217.579 210.657 216.772C210.607 216.218 210.783 215.764 211.186 215.411C211.59 215.008 212.018 214.806 212.472 214.806H221.095C221.246 214.806 221.372 214.831 221.473 214.881C221.574 214.932 221.725 215.033 221.927 215.184C222.582 215.537 223.238 215.991 223.893 216.545C224.549 217.05 225.305 217.504 226.162 217.907C227.02 218.31 228.053 218.512 229.264 218.512C230.675 218.512 231.86 218.235 232.818 217.68C233.776 217.125 234.255 216.293 234.255 215.184C234.255 214.377 234.029 213.722 233.575 213.217C233.121 212.663 232.188 212.133 230.776 211.629C229.415 211.125 227.347 210.621 224.574 210.116C221.952 209.511 219.658 208.73 217.691 207.772C215.725 206.763 214.212 205.477 213.153 203.914C212.094 202.301 211.565 200.359 211.565 198.09C211.565 196.073 212.22 194.132 213.531 192.266C214.842 190.401 216.758 188.888 219.28 187.728C221.801 186.518 224.902 185.913 228.583 185.913C231.507 185.913 234.029 186.266 236.146 186.972C238.315 187.627 240.13 188.484 241.592 189.543C243.105 190.602 244.239 191.686 244.996 192.796C245.752 193.905 246.156 194.914 246.206 195.821C246.256 196.325 246.105 196.779 245.752 197.183C245.399 197.536 244.996 197.712 244.542 197.712H236.676C236.474 197.712 236.272 197.687 236.071 197.636C235.869 197.536 235.693 197.435 235.541 197.334C234.936 197.031 234.331 196.628 233.726 196.124C233.121 195.619 232.415 195.166 231.608 194.762C230.801 194.359 229.793 194.157 228.583 194.157C227.221 194.157 226.162 194.46 225.406 195.065C224.65 195.67 224.272 196.451 224.272 197.41C224.272 198.065 224.473 198.67 224.877 199.225C225.33 199.779 226.213 200.284 227.524 200.737C228.885 201.191 230.978 201.696 233.802 202.25C237.281 202.805 240.054 203.713 242.122 204.973C244.189 206.183 245.651 207.62 246.509 209.284C247.366 210.898 247.794 212.612 247.794 214.428C247.794 216.848 247.063 218.991 245.601 220.857C244.189 222.722 242.071 224.185 239.247 225.244C236.424 226.252 232.995 226.756 228.961 226.756ZM272.734 226.756C266.784 226.756 262.044 225.143 258.515 221.916C254.985 218.688 253.144 213.898 252.993 207.545C252.993 207.192 252.993 206.738 252.993 206.183C252.993 205.629 252.993 205.2 252.993 204.897C253.144 200.914 254.027 197.51 255.64 194.687C257.304 191.812 259.574 189.644 262.448 188.182C265.372 186.669 268.776 185.913 272.659 185.913C277.096 185.913 280.752 186.795 283.626 188.56C286.55 190.325 288.744 192.72 290.206 195.746C291.669 198.771 292.4 202.225 292.4 206.108V207.923C292.4 208.478 292.198 208.931 291.795 209.284C291.442 209.637 291.013 209.814 290.509 209.814H266.305C266.305 209.864 266.305 209.94 266.305 210.041C266.305 210.142 266.305 210.242 266.305 210.343C266.356 211.806 266.608 213.142 267.062 214.352C267.515 215.562 268.221 216.52 269.179 217.226C270.137 217.932 271.297 218.285 272.659 218.285C273.667 218.285 274.499 218.134 275.155 217.831C275.861 217.478 276.44 217.1 276.894 216.697C277.348 216.243 277.701 215.865 277.953 215.562C278.407 215.058 278.76 214.755 279.012 214.655C279.315 214.503 279.768 214.428 280.374 214.428H289.752C290.257 214.428 290.66 214.579 290.963 214.881C291.316 215.134 291.467 215.512 291.416 216.016C291.366 216.873 290.937 217.907 290.131 219.117C289.324 220.327 288.139 221.537 286.576 222.748C285.063 223.907 283.147 224.865 280.827 225.622C278.508 226.378 275.81 226.756 272.734 226.756ZM266.305 202.326H279.088V202.175C279.088 200.561 278.836 199.149 278.331 197.939C277.878 196.729 277.146 195.796 276.138 195.14C275.18 194.485 274.02 194.157 272.659 194.157C271.297 194.157 270.137 194.485 269.179 195.14C268.272 195.796 267.566 196.729 267.062 197.939C266.557 199.149 266.305 200.561 266.305 202.175V202.326ZM301.381 226C300.827 226 300.373 225.824 300.02 225.471C299.667 225.118 299.491 224.664 299.491 224.109V174.189C299.491 173.635 299.667 173.181 300.02 172.828C300.373 172.475 300.827 172.298 301.381 172.298H310.307C310.861 172.298 311.315 172.475 311.668 172.828C312.021 173.181 312.197 173.635 312.197 174.189V224.109C312.197 224.664 312.021 225.118 311.668 225.471C311.315 225.824 310.861 226 310.307 226H301.381Z" fill="black"/>
</g>
<defs>
<clipPath id="clip0_306_312">
<rect width="400" height="400" fill="white"/>
</clipPath>
</defs>
</svg>
