<svg width="400" height="400" viewBox="0 0 400 400" fill="none" xmlns="http://www.w3.org/2000/svg">
<g clip-path="url(#clip0_305_300)">
<path d="M200 0L373.205 100V300L200 400L26.7949 300V100L200 0Z" fill="#FDF6FC"/>
<mask id="mask0_305_300" style="mask-type:alpha" maskUnits="userSpaceOnUse" x="61" y="162" width="280" height="72">
<path d="M64.1532 232.201C63.4599 232.201 62.8927 231.98 62.4515 231.539C62.0104 231.098 61.7898 230.531 61.7898 229.837V168.39C61.7898 167.697 62.0104 167.13 62.4515 166.689C62.8927 166.247 63.4599 166.027 64.1532 166.027H90.6227C95.8536 166.027 100.391 166.846 104.236 168.485C108.143 170.06 111.168 172.455 113.311 175.669C115.517 178.883 116.62 182.948 116.62 187.864C116.62 192.717 115.517 196.719 113.311 199.87C111.168 203.021 108.143 205.353 104.236 206.865C100.391 208.378 95.8536 209.134 90.6227 209.134H79.3731V229.837C79.3731 230.531 79.121 231.098 78.6169 231.539C78.1757 231.98 77.6085 232.201 76.9153 232.201H64.1532ZM79.0895 196.089H90.15C92.86 196.089 95.0028 195.395 96.5783 194.009C98.2169 192.622 99.0362 190.511 99.0362 187.675C99.0362 185.28 98.343 183.263 96.9565 181.625C95.57 179.986 93.3012 179.167 90.15 179.167H79.0895V196.089ZM127.921 232.201C127.228 232.201 126.66 231.98 126.219 231.539C125.778 231.098 125.557 230.531 125.557 229.837V185.406C125.557 184.713 125.778 184.146 126.219 183.705C126.66 183.263 127.228 183.043 127.921 183.043H139.076C139.706 183.043 140.242 183.263 140.683 183.705C141.187 184.146 141.439 184.713 141.439 185.406V229.837C141.439 230.531 141.187 231.098 140.683 231.539C140.242 231.98 139.706 232.201 139.076 232.201H127.921ZM127.826 175.953C127.133 175.953 126.566 175.732 126.125 175.291C125.684 174.85 125.463 174.283 125.463 173.589V165.176C125.463 164.483 125.684 163.916 126.125 163.474C126.566 162.97 127.133 162.718 127.826 162.718H139.076C139.769 162.718 140.336 162.97 140.777 163.474C141.282 163.916 141.534 164.483 141.534 165.176V173.589C141.534 174.283 141.282 174.85 140.777 175.291C140.336 175.732 139.769 175.953 139.076 175.953H127.826ZM157.832 232.201C157.139 232.201 156.572 231.98 156.13 231.539C155.689 231.098 155.469 230.531 155.469 229.837V185.406C155.469 184.713 155.689 184.146 156.13 183.705C156.572 183.263 157.139 183.043 157.832 183.043H168.703C169.397 183.043 169.964 183.263 170.405 183.705C170.846 184.146 171.067 184.713 171.067 185.406V188.999C172.705 187.045 174.848 185.406 177.495 184.083C180.142 182.759 183.262 182.098 186.854 182.098C190.509 182.098 193.723 182.917 196.496 184.555C199.332 186.194 201.538 188.62 203.114 191.835C204.752 194.986 205.572 198.862 205.572 203.462V229.837C205.572 230.531 205.32 231.098 204.815 231.539C204.374 231.98 203.839 232.201 203.208 232.201H191.297C190.667 232.201 190.1 231.98 189.595 231.539C189.154 231.098 188.934 230.531 188.934 229.837V204.029C188.934 201.067 188.209 198.799 186.759 197.223C185.373 195.584 183.293 194.765 180.52 194.765C177.936 194.765 175.856 195.584 174.281 197.223C172.768 198.799 172.012 201.067 172.012 204.029V229.837C172.012 230.531 171.76 231.098 171.256 231.539C170.815 231.98 170.279 232.201 169.649 232.201H157.832ZM236.352 233.146C232.256 233.146 228.758 232.705 225.859 231.822C223.023 230.877 220.691 229.743 218.863 228.419C217.099 227.096 215.775 225.741 214.893 224.354C214.011 222.905 213.538 221.676 213.475 220.667C213.412 219.974 213.632 219.407 214.137 218.966C214.641 218.462 215.177 218.21 215.744 218.21H226.521C226.71 218.21 226.867 218.241 226.993 218.304C227.119 218.367 227.308 218.493 227.56 218.682C228.38 219.123 229.199 219.691 230.018 220.384C230.838 221.014 231.783 221.581 232.854 222.085C233.926 222.59 235.218 222.842 236.73 222.842C238.495 222.842 239.976 222.495 241.173 221.802C242.371 221.109 242.97 220.069 242.97 218.682C242.97 217.674 242.686 216.855 242.119 216.224C241.552 215.531 240.386 214.869 238.621 214.239C236.919 213.609 234.335 212.979 230.869 212.348C227.592 211.592 224.724 210.615 222.267 209.418C219.809 208.157 217.918 206.55 216.595 204.597C215.271 202.58 214.609 200.154 214.609 197.318C214.609 194.797 215.429 192.37 217.067 190.038C218.706 187.707 221.101 185.816 224.252 184.366C227.403 182.854 231.279 182.098 235.879 182.098C239.535 182.098 242.686 182.539 245.333 183.421C248.043 184.24 250.312 185.312 252.139 186.635C254.03 187.959 255.448 189.314 256.393 190.7C257.339 192.087 257.843 193.347 257.906 194.482C257.969 195.112 257.78 195.679 257.339 196.183C256.898 196.624 256.393 196.845 255.826 196.845H245.995C245.743 196.845 245.49 196.813 245.238 196.75C244.986 196.624 244.766 196.498 244.577 196.372C243.82 195.994 243.064 195.49 242.308 194.86C241.552 194.229 240.669 193.662 239.661 193.158C238.652 192.654 237.392 192.402 235.879 192.402C234.178 192.402 232.854 192.78 231.909 193.536C230.964 194.292 230.491 195.269 230.491 196.467C230.491 197.286 230.743 198.042 231.247 198.736C231.814 199.429 232.917 200.059 234.556 200.626C236.258 201.193 238.873 201.824 242.402 202.517C246.751 203.21 250.217 204.345 252.801 205.92C255.385 207.433 257.213 209.229 258.284 211.309C259.355 213.325 259.891 215.468 259.891 217.737C259.891 220.762 258.977 223.44 257.15 225.772C255.385 228.104 252.738 229.932 249.209 231.255C245.679 232.516 241.394 233.146 236.352 233.146ZM291.062 233.146C283.626 233.146 277.701 231.129 273.29 227.096C268.878 223.062 266.578 217.075 266.389 209.134C266.389 208.693 266.389 208.126 266.389 207.433C266.389 206.739 266.389 206.204 266.389 205.826C266.578 200.847 267.681 196.593 269.698 193.064C271.777 189.471 274.613 186.761 278.206 184.934C281.861 183.043 286.115 182.098 290.968 182.098C296.514 182.098 301.083 183.2 304.675 185.406C308.33 187.612 311.072 190.606 312.9 194.387C314.727 198.168 315.641 202.485 315.641 207.338V209.607C315.641 210.3 315.389 210.867 314.885 211.309C314.444 211.75 313.908 211.97 313.278 211.97H283.027C283.027 212.033 283.027 212.128 283.027 212.254C283.027 212.38 283.027 212.506 283.027 212.632C283.09 214.46 283.405 216.13 283.972 217.642C284.539 219.155 285.422 220.352 286.619 221.235C287.817 222.117 289.266 222.558 290.968 222.558C292.228 222.558 293.268 222.369 294.087 221.991C294.97 221.55 295.694 221.077 296.262 220.573C296.829 220.006 297.27 219.533 297.585 219.155C298.152 218.525 298.593 218.147 298.909 218.021C299.287 217.831 299.854 217.737 300.61 217.737H312.332C312.963 217.737 313.467 217.926 313.845 218.304C314.286 218.619 314.475 219.092 314.412 219.722C314.349 220.794 313.813 222.085 312.805 223.598C311.797 225.111 310.316 226.623 308.362 228.136C306.471 229.585 304.076 230.783 301.177 231.728C298.278 232.673 294.907 233.146 291.062 233.146ZM283.027 202.611H299.003V202.422C299.003 200.406 298.688 198.641 298.058 197.128C297.491 195.616 296.577 194.45 295.316 193.631C294.119 192.811 292.669 192.402 290.968 192.402C289.266 192.402 287.817 192.811 286.619 193.631C285.485 194.45 284.602 195.616 283.972 197.128C283.342 198.641 283.027 200.406 283.027 202.422V202.611ZM326.867 232.201C326.174 232.201 325.607 231.98 325.165 231.539C324.724 231.098 324.504 230.531 324.504 229.837V167.445C324.504 166.752 324.724 166.184 325.165 165.743C325.607 165.302 326.174 165.081 326.867 165.081H338.022C338.715 165.081 339.283 165.302 339.724 165.743C340.165 166.184 340.385 166.752 340.385 167.445V229.837C340.385 230.531 340.165 231.098 339.724 231.539C339.283 231.98 338.715 232.201 338.022 232.201H326.867Z" fill="black"/>
</mask>
<g mask="url(#mask0_305_300)">
<circle cx="151.184" cy="132.384" r="127.03" fill="#9E69F7"/>
<circle cx="115.733" cy="309.635" r="127.03" fill="#5BA1F4"/>
<circle cx="343.206" cy="265.322" r="127.03" fill="#F3B873"/>
</g>
</g>
<defs>
<clipPath id="clip0_305_300">
<rect width="400" height="400" fill="white"/>
</clipPath>
</defs>
</svg>
